Coordinates
version=1
nRows=18
nColumns=22
inDegrees=yes

Units are S.I. units (second, meters, Newtons, ...)
If the header above contains a line with 'inDegrees', this indicates whether rotational values are in degrees (yes) or radians (no).

endheader
time	pelvis_tilt	pelvis_list	pelvis_rotation	pelvis_tx	pelvis_ty	pelvis_tz	hip_flexion_r	hip_adduction_r	hip_rotation_r	knee_angle_r	ankle_angle_r	subtalar_angle_r	hip_flexion_l	hip_adduction_l	hip_rotation_l	knee_angle_l	ankle_angle_l	subtalar_angle_l	lumbar_extension	lumbar_bending	lumbar_rotation
      1.40000000	     -0.29975467	      0.02940948	    -26.01901609	     -0.90664682	      0.90445331	     -0.36837323	     -2.52162031	     -1.96691659	     -3.47670437	     -8.52034153	     19.13232554	      3.86188294	      2.14710199	      0.44010740	     -9.49475897	    -17.23491678	     18.46145290	     -7.17242436	     -6.42171468	     -1.37022716	      5.30936763
      1.41000000	     -0.20394370	     -0.00683485	    -26.00035000	     -0.90581848	      0.90443286	     -0.36988078	     -2.00401462	     -2.09362381	     -3.35589562	     -9.67042434	     19.32536774	      3.69220733	      2.11263766	      0.58428860	     -9.32956728	    -17.38321165	     18.59273383	     -7.33274942	     -6.72267099	     -1.35726131	      5.30184432
      1.42000000	     -0.15164895	     -0.00910892	    -26.00796470	     -0.90502272	      0.90433026	     -0.37138204	     -1.33162968	     -2.23209460	     -3.16014579	    -10.98411795	     19.50655733	      3.45919542	      2.11737893	      0.74248725	     -9.18347676	    -17.49594967	     18.68682021	     -7.53317547	     -6.96790069	     -1.35807574	      5.27324423
      1.43000000	     -0.17768784	     -0.00152907	    -26.03439082	     -0.90430678	      0.90412260	     -0.37287502	     -0.48819124	     -2.33376445	     -2.88138100	    -12.44216167	     19.61063381	      3.02990212	      2.21559340	      0.86618010	     -9.05550245	    -17.62776836	     18.76786167	     -7.84488776	     -7.13956461	     -1.33140804	      5.24856959
      1.44000000	     -0.14175794	      0.02484599	    -26.10522117	     -0.90359512	      0.90397958	     -0.37429707	      0.39235886	     -2.47935576	     -2.57474882	    -14.04965930	     19.72666641	      2.70443203	      2.22472908	      1.03551958	     -8.99891272	    -17.69888492	     18.83517403	     -7.99455003	     -7.37758194	     -1.36076405	      5.23203072
      1.45000000	     -0.12116990	      0.06365849	    -26.20661223	     -0.90293067	      0.90381717	     -0.37566720	      1.38941733	     -2.61975140	     -2.23253676	    -15.81440288	     19.78301512	      2.35574949	      2.24517841	      1.20340118	     -8.99577155	    -17.75388145	     18.89908791	     -8.11248531	     -7.60626337	     -1.39840235	      5.22164470
      1.46000000	     -0.10837204	      0.11240452	    -26.34129544	     -0.90231090	      0.90365062	     -0.37696563	      2.48957674	     -2.75277547	     -1.86194425	    -17.72730671	     19.77727024	      1.99352476	      2.26371003	      1.37153001	     -9.04725253	    -17.78373272	     18.95128723	     -8.20226368	     -7.83212838	     -1.44687459	      5.21243331
      1.47000000	     -0.10201509	      0.16718850	    -26.50542364	     -0.90173041	      0.90349133	     -0.37818713	      3.68486723	     -2.87306772	     -1.47471626	    -19.78069876	     19.69733264	      1.62249483	      2.27812594	      1.53688702	     -9.14870416	    -17.79136822	     18.99367992	     -8.26971297	     -8.05786151	     -1.50239204	      5.19921053
      1.48000000	     -0.05469895	      0.22658477	    -26.70104994	     -0.90118481	      0.90340380	     -0.37934933	      4.91804760	     -3.00172136	     -1.06485574	    -21.95155268	     19.56916118	      1.33274626	      2.22822908	      1.73037818	     -9.26848257	    -17.74947993	     19.00376918	     -8.30116517	     -8.34105998	     -1.58606596	      5.19896034
      1.49000000	     -0.06085632	      0.27792424	    -26.91019046	     -0.90066705	      0.90327470	     -0.38044137	      6.26688342	     -3.07763412	     -0.67277817	    -24.22702694	     19.32010629	      0.98639843	      2.22609177	      1.88077538	     -9.43846417	    -17.70956602	     18.99476429	     -8.33910797	     -8.57854536	     -1.63436148	      5.19405214
      1.50000000	     -0.10198828	      0.30333672	    -27.10506104	     -0.90013142	      0.90313673	     -0.38148090	      7.67256913	     -3.09755052	     -0.34366798	    -26.55559553	     18.96501814	      0.53329749	      2.25573553	      1.97624483	     -9.64977248	    -17.69494010	     18.99049193	     -8.38275171	     -8.79730062	     -1.63475825	      5.15767660
      1.51000000	     -0.09364050	      0.32181584	    -27.30892941	     -0.89955025	      0.90309387	     -0.38245167	      9.04334384	     -3.11604966	     -0.00801779	    -28.89456406	     18.56246479	      0.12515464	      2.20183276	      2.09489176	     -9.84609083	    -17.63006544	     18.95531829	     -8.39601473	     -9.07779665	     -1.65502331	      5.11445901
      1.52000000	     -0.04631618	      0.31918320	    -27.51019284	     -0.89887657	      0.90314971	     -0.38333765	     10.35380971	     -3.11502502	      0.31279558	    -31.19000018	     18.11190376	     -0.21794892	      2.05955503	      2.21836057	    -10.01220814	    -17.50452885	     18.88335939	     -8.38497240	     -9.40823522	     -1.67526304	      5.07104684
      1.53000000	     -0.02490925	      0.28377287	    -27.66959077	     -0.89808954	      0.90320879	     -0.38416772	     11.63451583	     -3.05975650	      0.55560861	    -33.39268470	     17.62305194	     -0.63482571	      1.93387525	      2.28425920	    -10.19820429	    -17.40884025	     18.83518727	     -8.35929503	     -9.72375895	     -1.64411014	      4.97986145
      1.54000000	      0.00393685	      0.21309207	    -27.78779073	     -0.89716309	      0.90332036	     -0.38493373	     12.82659912	     -2.96558885	      0.73234438	    -35.44578096	     17.16618936	     -1.10917308	      1.77787123	      2.31289549	    -10.37174073	    -17.32123878	     18.79143789	     -8.31020966	    -10.06002931	     -1.57765545	      4.85533791
      1.55000000	      0.02911018	      0.09373074	    -27.84752458	     -0.89607106	      0.90348259	     -0.38562913	     13.90541064	     -2.82041003	      0.81494620	    -37.28713661	     16.76029096	     -1.76548728	      1.59653533	      2.28267592	    -10.52727682	    -17.24473136	     18.79196555	     -8.20867875	    -10.40809735	     -1.45505467	      4.67610327
      1.56000000	      0.08794823	     -0.03671074	    -27.89845663	     -0.89482361	      0.90371257	     -0.38621060	     14.86887026	     -2.67383579	      0.85887576	    -38.91938630	     16.43037297	     -2.15080598	      1.34540844	      2.25999812	    -10.66658311	    -17.13186312	     18.74353826	     -8.11681004	    -10.78502533	     -1.34206266	      4.50956496
      1.57000000	      0.13159753	     -0.20070530	    -27.91358245	     -0.89344687	      0.90397174	     -0.38671494	     15.73227700	     -2.48430196	      0.83531376	    -40.29209596	     16.15495601	     -2.50294653	      1.08194119	      2.19776388	    -10.72819639	    -17.01578969	     18.72381392	     -8.00010187	    -11.15760160	     -1.18598154	      4.34333926
